# xmcd
#
# Track frame offsets: 
#        150
#        17492
#        32419
#        46580
#        63316
#        79200
#        97817
#        113880
#        127771
#        145245
#        162031
#        176580
#        192197
#        208307
#        222571
#        243033
#        256493
#        277197
#        292342
#
# Disc length: 4076 seconds
#
# Revision: 0
# Processed by: cddbd v1.5.2PL0 Copyright (c) Steve Scherf et al.
# Submitted via: ExactAudioCopy v1.3
#
DISCID=0f0fea13
DTITLE=Various Artist - 100% Country 2016
DYEAR=2016
DGENRE=Country
TTITLE0=Kasey Chambers - Im Alive
TTITLE1=Beccy Cole - Sweet Rebecca
TTITLE2=Victoria Avenue - Available
TTITLE3=Morgan Evans - Like A Tornado
TTITLE4=Chelsea Basham - One Of These Days
TTITLE5=Jasmine Rae - When I Found You
TTITLE6=Adam Brand And The Outlaws - Good Year For The Outlaw
TTITLE7=Sharmain Kendrick - Kill Him
TTITLE8=Brothers3 - Brothers Never Part
TTITLE9=Melanie Dyer - Busy Doing Nothing
TTITLE10=Hurricane Fall - Levis
TTITLE11=Travis Collins - Just Another Girl
TTITLE12=Deep Creek Road - Anchor
TTITLE13=Kaylens Rain - Lost In The Moonshine
TTITLE14=Harmony James - Cold Western Wind
TTITLE15=John Williamson - Aussie Girls
TTITLE16=Matt Cornell - Feels Like Yesterday
TTITLE17=Kaylee Bell - Thats What I Call Crazy
TTITLE18=Bennett Bowtell Urquhart - I Hear Them All
EXTD=
EXTT0=
EXTT1=
EXTT2=
EXTT3=
EXTT4=
EXTT5=
EXTT6=
EXTT7=
EXTT8=
EXTT9=
EXTT10=
EXTT11=
EXTT12=
EXTT13=
EXTT14=
EXTT15=
EXTT16=
EXTT17=
EXTT18=
PLAYORDER=
